<svg width="17" height="17" viewBox="0 0 17 17" fill="none" xmlns="http://www.w3.org/2000/svg">
<g clip-path="url(#clip0_106_1066)">
<path d="M6.99768 9.03971C7.28398 9.42246 7.64925 9.73917 8.06871 9.96834C8.48818 10.1975 8.95202 10.3338 9.42878 10.3679C9.90554 10.4021 10.3841 10.3333 10.8319 10.1662C11.2798 9.99917 11.6864 9.73776 12.0243 9.39971L14.0243 7.39971C14.6315 6.77104 14.9675 5.92903 14.9599 5.05504C14.9523 4.18105 14.6018 3.34501 13.9837 2.72698C13.3657 2.10896 12.5297 1.75839 11.6557 1.7508C10.7817 1.7432 9.93969 2.07918 9.31101 2.68638L8.16435 3.82638" stroke="#181818" stroke-width="2" stroke-linecap="round" stroke-linejoin="round"/>
<path d="M9.66428 7.70631C9.37797 7.32355 9.0127 7.00685 8.59324 6.77768C8.17378 6.54851 7.70994 6.41223 7.23318 6.37808C6.75641 6.34394 6.27789 6.41273 5.83005 6.57979C5.38221 6.74684 4.97553 7.00826 4.63761 7.34631L2.63761 9.34631C2.03042 9.97498 1.69444 10.817 1.70203 11.691C1.70963 12.565 2.06019 13.401 2.67822 14.019C3.29624 14.6371 4.13228 14.9876 5.00627 14.9952C5.88026 15.0028 6.72227 14.6668 7.35094 14.0596L8.49094 12.9196" stroke="#181818" stroke-width="2" stroke-linecap="round" stroke-linejoin="round"/>
</g>
<defs>
<clipPath id="clip0_106_1066">
<rect width="16" height="16" fill="white" transform="translate(0.331055 0.373047)"/>
</clipPath>
</defs>
</svg>
