<svg width="100" height="100" viewBox="0 0 100 100" fill="none" xmlns="http://www.w3.org/2000/svg">
<path fill-rule="evenodd" clip-rule="evenodd" d="M5.49175 5.49175C0 10.9835 0 19.8223 0 37.5V62.5C0 80.1777 0 89.0165 5.49175 94.5083C10.9835 100 19.8223 100 37.5 100H62.5C80.1777 100 89.0165 100 94.5083 94.5083C100 89.0165 100 80.1777 100 62.5V37.5C100 19.8223 100 10.9835 94.5083 5.49175C89.0165 0 80.1777 0 62.5 0H37.5C19.8223 0 10.9835 0 5.49175 5.49175ZM24.959 31.326C20.8416 31.326 17.5 27.9501 17.5 23.788C17.5 19.6259 20.8416 16.25 24.959 16.25C29.0764 16.25 32.418 19.6259 32.418 23.788C32.418 27.9501 29.0807 31.326 24.959 31.326ZM18.5656 83.75V36.7444H31.3525V83.75H18.5656ZM69.7131 83.75H82.5V54.8672C82.5 32.4199 58.6184 33.2361 52.6639 44.2867V36.7444H39.877V83.75H52.6639V59.8028C52.6639 46.5002 69.7131 45.4105 69.7131 59.8028V83.75Z" fill="white"/>
</svg>
